<?xml version="1.0" standalone="no"?>
<!DOCTYPE svg PUBLIC "-//W3C//DTD SVG 20010904//EN"
 "http://www.w3.org/TR/2001/REC-SVG-20010904/DTD/svg10.dtd">
<svg version="1.0" xmlns="http://www.w3.org/2000/svg"
 width="1290.000000pt" height="1290.000000pt" viewBox="0 0 1290.000000 1290.000000"
 preserveAspectRatio="xMidYMid meet">
<metadata>
Created by potrace 1.14, written by Peter Selinger 2001-2017
</metadata>
<g transform="translate(0.000000,1290.000000) scale(0.100000,-0.100000)"
fill="#000000" stroke="none">
<path d="M8080 11850 c-45 -13 -92 -40 -250 -145 -409 -272 -732 -601 -1011
-1027 -85 -131 -231 -431 -278 -573 -71 -213 -132 -567 -153 -883 -11 -172
-13 -183 -32 -187 -12 -2 -75 -13 -141 -25 -183 -32 -312 -66 -520 -135 -241
-80 -421 -159 -613 -269 -84 -48 -179 -99 -210 -113 -296 -130 -491 -265 -743
-514 -127 -126 -221 -242 -342 -424 -224 -338 -400 -830 -448 -1255 -23 -203
1 -603 47 -787 21 -86 115 -343 164 -450 44 -96 259 -457 371 -623 73 -110
330 -427 435 -537 153 -162 337 -310 542 -438 312 -193 545 -271 932 -309 445
-44 701 -45 954 -6 327 51 490 113 934 359 346 191 438 256 725 514 224 200
448 455 604 689 74 111 245 440 281 543 33 94 101 338 122 439 62 301 85 496
83 731 -2 427 -62 751 -198 1076 -81 190 -176 352 -303 511 -34 43 -62 79 -62
81 0 2 19 9 43 16 23 7 58 21 77 32 19 10 94 44 165 74 151 65 207 96 329 179
113 76 181 143 207 201 26 58 19 95 -25 133 -86 76 -425 255 -625 332 -105 40
-350 102 -496 127 -176 29 -525 24 -759 -10 -153 -23 -317 -59 -383 -84 -10
-4 10 24 43 62 34 39 67 80 73 93 7 13 54 78 105 145 112 148 210 293 299 444
287 485 348 774 302 1433 -24 337 -44 448 -94 519 -35 49 -102 76 -151 61z
m-51 -269 c20 -27 20 -67 0 -55 -15 9 -40 64 -34 74 9 14 12 13 34 -19z m-59
-95 c37 -63 38 -68 26 -102 l-12 -36 -52 88 -51 89 22 17 c12 9 23 15 25 13 2
-2 21 -33 42 -69z m-81 -112 c34 -58 61 -113 61 -122 -1 -10 -7 -30 -14 -47
l-12 -30 -72 121 c-89 151 -88 148 -60 168 12 9 26 16 29 16 4 0 35 -48 68
-106z m266 -359 c8 -274 -1 -381 -50 -568 -51 -198 -167 -428 -360 -717 -185
-276 -426 -563 -553 -659 -102 -77 -449 -285 -460 -276 -2 2 59 92 136 201
368 527 524 793 870 1476 194 384 253 519 328 748 30 91 57 172 61 180 11 23
20 -109 28 -385z m-430 368 c3 -10 43 -80 87 -156 l81 -138 -12 -41 c-7 -22
-16 -37 -20 -32 -5 5 -54 83 -111 173 l-102 164 28 23 c35 28 40 29 49 7z
m-12 -265 l116 -187 -15 -36 c-8 -20 -18 -34 -23 -31 -4 3 -63 91 -131 196
l-122 191 28 30 c15 16 28 28 30 26 1 -1 54 -86 117 -189z m-109 -99 c61 -96
121 -189 134 -206 22 -31 22 -34 7 -70 l-16 -37 -149 224 -149 224 21 23 c12
13 26 22 31 20 6 -2 60 -82 121 -178z m-163 -1 c29 -46 97 -151 151 -235 96
-146 99 -153 85 -178 l-14 -27 -30 38 c-17 22 -90 131 -162 243 -125 194 -131
205 -115 222 10 11 20 19 25 19 4 0 31 -37 60 -82z m-27 -199 c61 -96 133
-205 160 -243 l49 -68 -18 -37 -17 -36 -21 27 c-30 38 -317 485 -317 494 0 13
33 45 44 41 5 -2 60 -82 120 -178z m-108 -86 c54 -87 129 -205 167 -261 53
-81 67 -109 63 -128 -4 -13 -10 -24 -15 -24 -13 0 -88 105 -236 327 -127 191
-128 193 -111 218 9 14 20 25 25 25 5 0 53 -71 107 -157z m-62 -150 c69 -105
150 -226 182 -268 l56 -77 -17 -39 c-10 -21 -22 -36 -27 -33 -14 9 -368 543
-368 555 0 14 33 59 42 56 4 -1 63 -88 132 -194z m3 -263 c81 -124 149 -230
151 -236 3 -11 -36 -84 -44 -84 -11 0 -374 573 -374 590 0 7 10 25 21 42 l22
30 37 -59 c21 -32 105 -159 187 -283z m-196 14 c63 -102 147 -235 187 -296 39
-61 72 -115 72 -120 0 -18 -31 -69 -39 -63 -14 8 -130 187 -249 382 -145 239
-134 214 -112 251 11 18 21 32 23 32 2 0 55 -84 118 -186z m-61 -179 c73 -121
157 -256 187 -300 l55 -80 -17 -32 -18 -32 -17 22 c-47 62 -370 548 -370 557
0 14 40 93 45 88 1 -1 62 -102 135 -223z m-26 -230 c102 -153 186 -284 186
-290 0 -5 -11 -23 -24 -39 l-23 -30 -84 138 c-46 75 -126 204 -176 286 -51 82
-93 153 -93 159 0 15 20 64 24 60 2 -2 87 -130 190 -284z m-106 -95 c64 -107
136 -226 160 -264 39 -62 43 -71 31 -92 -7 -13 -15 -24 -18 -24 -15 1 -341
507 -341 529 0 10 5 33 12 51 10 31 12 32 25 14 8 -10 67 -107 131 -214z m-58
-165 c62 -99 130 -204 151 -234 37 -51 38 -54 22 -78 l-17 -25 -18 22 c-10 12
-48 72 -85 134 -36 61 -95 155 -130 209 -61 95 -70 118 -57 152 8 21 3 29 134
-180z m-21 -195 c110 -181 127 -216 118 -231 -13 -21 2 -41 -178 250 -82 132
-100 176 -82 194 9 9 -4 27 142 -213z m-61 -110 c43 -74 88 -151 100 -171 18
-29 20 -38 9 -52 -11 -15 -22 -2 -92 110 -44 70 -91 140 -103 155 -20 24 -23
35 -17 69 4 22 11 37 15 32 5 -4 44 -69 88 -143z m-25 -177 c45 -74 75 -133
72 -142 -8 -20 -19 -8 -100 109 -47 69 -65 104 -65 128 0 17 3 32 8 32 4 0 42
-57 85 -127z m0 -244 l-16 -27 -39 54 c-32 46 -38 63 -38 106 l0 52 55 -79
c54 -77 54 -79 38 -106z m1501 39 c-15 -24 -48 -74 -74 -113 -26 -38 -66 -102
-89 -141 -37 -63 -47 -73 -78 -79 -19 -3 -37 -4 -40 -1 -6 5 30 67 144 248 74
117 81 123 141 127 l22 1 -26 -42z m196 37 c0 -3 -52 -84 -117 -180 l-116
-175 -39 0 c-21 0 -38 2 -38 5 0 3 38 65 83 138 46 73 96 151 111 175 24 39
29 42 71 42 25 0 45 -2 45 -5z m156 -3 c-11 -19 -218 -309 -231 -324 -8 -10
-26 -18 -39 -18 -23 0 -18 11 76 158 56 86 108 165 116 175 15 16 89 26 78 9z
m-615 -189 c-110 -177 -119 -188 -150 -191 l-32 -3 33 53 c19 29 72 112 118
185 79 125 90 136 137 142 6 0 -42 -83 -106 -186z m772 168 c10 -9 -178 -262
-222 -298 -8 -7 -30 -13 -48 -13 l-34 0 83 120 c46 66 97 140 113 164 28 42
32 44 65 39 19 -3 38 -9 43 -12z m-813 -6 c0 -3 -51 -85 -114 -183 -106 -164
-117 -177 -146 -180 l-33 -3 23 38 c87 143 185 301 198 316 13 15 72 25 72 12z
m-166 -27 c-4 -7 -46 -73 -92 -147 -46 -73 -90 -148 -98 -166 -10 -25 -21 -34
-44 -37 -16 -3 -30 -3 -30 -2 0 4 61 110 137 237 37 61 74 112 87 117 32 13
48 12 40 -2z m1120 6 c13 -5 7 -18 -33 -68 -26 -33 -69 -94 -95 -133 l-46 -73
-46 0 c-44 0 -46 1 -33 19 184 252 192 261 214 261 13 0 30 -3 39 -6z m144
-43 c9 -5 -12 -39 -69 -114 -80 -104 -83 -107 -121 -107 -29 0 -37 3 -32 13
20 33 73 108 117 165 50 64 59 67 105 43z m-1455 -49 c-15 -27 -57 -98 -93
-159 -50 -86 -71 -112 -90 -116 -14 -3 -26 -4 -28 -2 -8 7 181 302 200 312 39
21 41 15 11 -35z m-913 -1 c10 -21 4 -51 -11 -51 -5 0 -9 16 -9 35 0 40 5 43
20 16z m2512 1 c4 -4 -19 -41 -52 -82 -54 -68 -64 -76 -102 -81 -24 -4 -44 -6
-45 -4 -2 1 27 43 65 93 63 87 69 92 97 87 16 -3 33 -9 37 -13z m-1748 -34
c-91 -162 -179 -276 -199 -256 -3 2 20 49 50 104 30 54 55 102 55 106 0 6 85
56 98 58 2 0 0 -6 -4 -12z m1844 -78 c-37 -44 -48 -50 -81 -50 -45 0 -43 8 23
82 41 47 42 48 71 32 l29 -15 -42 -49z m120 -27 c-15 -15 -34 -23 -46 -21 -21
3 -21 3 4 35 22 28 28 31 46 22 20 -11 20 -11 -4 -36z m-2198 -59 c-22 -38
-40 -74 -40 -81 0 -8 -13 -13 -31 -13 -17 0 -29 3 -27 8 27 61 78 133 103 145
16 8 31 14 33 12 1 -1 -16 -33 -38 -71z m2315 36 c3 -5 -3 -10 -14 -10 -11 0
-23 5 -26 10 -3 6 3 10 14 10 11 0 23 -4 26 -10z m-2476 -90 c-21 -37 -26 -40
-68 -40 -24 0 -41 3 -38 7 7 7 119 72 125 73 2 0 -7 -18 -19 -40z m2531 -40
c21 -12 -149 -118 -294 -183 -154 -70 -472 -181 -590 -208 -142 -32 -422 -43
-588 -24 -73 8 -160 20 -193 26 -141 24 -423 93 -518 125 -56 20 -176 61 -267
92 l-165 57 225 6 c124 3 257 9 295 13 426 39 1003 81 1315 95 371 17 747 18
780 1z m-2661 -492 c17 -45 -34 -87 -83 -69 -57 22 -27 91 39 91 28 0 38 -5
44 -22z m2016 -163 c223 -284 355 -568 425 -915 39 -195 53 -345 54 -590 1
-328 -58 -678 -176 -1049 -57 -179 -269 -572 -379 -701 l-21 -25 18 30 c10 17
45 72 78 124 153 244 280 599 320 896 27 201 37 490 27 770 -16 411 -46 600
-137 876 -84 252 -200 477 -322 624 -23 27 -42 53 -42 57 0 6 26 13 55 16 6 1
50 -50 100 -113z m-511 -130 c30 -30 -16 -93 -48 -66 -20 17 -20 45 0 65 19
20 29 20 48 1z m-324 -24 c0 -11 -5 -23 -11 -27 -15 -9 -33 12 -26 30 9 23 37
20 37 -3z m828 -154 c2 -10 -3 -17 -12 -17 -10 0 -16 9 -16 21 0 24 23 21 28
-4z m-240 -9 c29 -29 -1 -98 -42 -98 -45 0 -60 45 -30 88 17 24 53 29 72 10z
m-1187 -118 c39 -21 16 -90 -30 -90 -6 0 -20 9 -31 20 -21 21 -18 46 8 68 19
15 28 15 53 2z m1545 -205 c9 -23 -15 -57 -39 -53 -17 2 -23 11 -25 37 -2 20
2 37 9 42 15 9 48 -6 55 -26z m-876 -13 c0 -35 -18 -56 -36 -41 -9 8 -10 18
-2 40 13 38 38 38 38 1z m-140 -241 c7 -15 6 -24 -6 -36 -31 -30 -86 0 -71 39
9 23 64 21 77 -3z m481 -5 c15 -31 4 -72 -21 -86 -44 -23 -85 34 -61 86 8 18
18 24 41 24 23 0 33 -6 41 -24z m252 -76 c-7 -25 -43 -27 -43 -2 0 10 5 23 12
30 16 16 37 -3 31 -28z m-2023 -20 c20 -37 -17 -75 -57 -59 -17 6 -23 16 -23
39 0 48 57 62 80 20z m940 -96 c6 -14 10 -30 10 -35 0 -14 -38 -49 -54 -49
-23 0 -46 29 -46 59 0 35 17 51 52 51 21 0 31 -6 38 -26z m-4064 -496 c1 -195
6 -307 16 -323 3 -5 9 -36 13 -68 3 -32 18 -103 31 -158 13 -55 24 -109 24
-121 0 -11 6 -32 14 -46 8 -15 27 -65 42 -112 39 -124 156 -442 199 -540 51
-119 112 -229 207 -372 211 -319 366 -483 683 -723 88 -66 114 -91 118 -114 7
-35 38 -55 84 -53 24 1 53 -11 101 -42 178 -115 411 -236 550 -286 34 -13 61
-25 58 -27 -8 -8 -216 38 -307 68 -167 56 -268 109 -484 252 -220 146 -376
292 -609 572 -88 105 -195 244 -238 310 -109 164 -304 493 -349 590 -46 100
-125 316 -150 412 -48 190 -66 578 -35 783 18 123 28 180 30 180 1 0 2 -82 2
-182z m5109 102 c11 -18 -6 -50 -26 -50 -21 0 -24 12 -9 41 12 21 25 25 35 9z
m48 -191 c24 -39 -20 -98 -63 -84 -50 16 -25 109 27 103 14 -2 30 -10 36 -19z
m365 -50 c1 -8 -3 -23 -11 -33 -18 -25 -38 -1 -26 32 9 25 32 25 37 1z m-1148
-8 c7 -15 6 -23 -6 -35 -19 -20 -29 -20 -48 0 -18 18 -18 17 -10 38 9 22 51
20 64 -3z m-910 -521 c11 -11 20 -24 20 -30 0 -5 -9 -19 -20 -30 -11 -11 -24
-20 -30 -20 -5 0 -19 9 -30 20 -11 11 -20 25 -20 30 0 6 9 19 20 30 11 11 25
20 30 20 6 0 19 -9 30 -20z m2095 -34 c38 -38 9 -79 -38 -54 -39 20 -45 38
-21 62 21 22 31 20 59 -8z m-1454 -136 c28 -15 26 -74 -3 -94 -19 -13 -25 -14
-43 -2 -26 17 -31 62 -9 87 20 22 28 23 55 9z m809 -123 c0 -8 -3 -17 -7 -20
-9 -9 -34 13 -27 24 8 14 34 11 34 -4z m440 -117 c26 -14 44 -73 30 -100 -22
-42 -81 -16 -95 42 -5 19 -1 32 14 47 24 24 26 24 51 11z m-942 -162 c33 -33
-10 -99 -50 -77 -26 14 -33 36 -20 65 13 26 49 33 70 12z m-978 -132 c0 -25
-30 -48 -46 -35 -10 8 -11 15 -1 30 14 22 47 26 47 5z m1508 -344 c7 -65 -48
-98 -82 -50 -22 31 -20 45 8 73 33 33 70 22 74 -23z m-322 -11 c-22 -21 -46 0
-26 24 10 12 16 13 27 3 12 -10 12 -13 -1 -27z m-404 -446 c6 -14 8 -28 4 -32
-11 -12 -41 12 -44 36 -5 30 26 27 40 -4z"/>
<path d="M5357 11286 c-89 -33 -150 -109 -169 -213 -10 -54 -8 -70 22 -188 26
-105 187 -616 257 -815 33 -94 104 -165 184 -185 29 -7 39 -38 39 -120 0 -46
14 -65 46 -65 36 0 46 23 43 105 l-2 76 34 21 c19 11 45 30 58 42 32 28 71
113 71 154 0 38 -232 980 -255 1035 -21 51 -80 114 -129 139 -51 26 -148 33
-199 14z m287 -311 c17 -18 22 -32 70 -235 39 -166 84 -382 121 -585 14 -77
28 -150 30 -162 6 -25 -19 -55 -40 -47 -21 8 -29 41 -90 359 -72 373 -120 582
-140 601 -19 20 -19 48 1 68 19 20 29 20 48 1z"/>
<path d="M8952 10677 c-19 -6 -55 -29 -80 -52 -63 -56 -214 -294 -339 -531
-55 -104 -115 -214 -133 -244 -71 -119 -90 -171 -90 -243 0 -37 6 -82 14 -101
11 -27 11 -36 0 -57 -18 -32 -17 -84 1 -99 22 -19 64 -4 71 25 7 30 3 29 47
10 50 -21 143 -19 192 4 22 10 53 33 68 52 29 34 191 281 305 464 35 55 94
143 132 195 94 128 152 244 158 314 12 151 -103 277 -252 275 -34 -1 -76 -6
-94 -12z m38 -517 c12 -7 17 -16 13 -27 -4 -9 -56 -80 -116 -157 -92 -118
-223 -306 -275 -394 -15 -26 -25 -27 -47 -6 -14 15 -13 21 16 73 65 115 191
291 317 444 35 42 66 77 69 77 2 0 13 -5 23 -10z"/>
<path d="M2570 9571 c-77 -24 -136 -79 -165 -155 -22 -56 -17 -154 10 -211 21
-44 329 -362 540 -558 202 -186 273 -206 412 -117 20 13 25 12 50 -12 32 -30
63 -41 81 -29 15 9 -199 240 -512 551 -108 107 -196 202 -196 211 0 9 6 22 14
28 12 10 70 -42 328 -297 l313 -310 3 50 c4 71 -30 134 -133 243 -47 50 -140
155 -207 235 -181 216 -311 343 -372 363 -52 18 -123 21 -166 8z"/>
<path d="M11030 8560 c-27 -8 -198 -88 -525 -243 -392 -186 -437 -209 -475
-243 -49 -45 -81 -120 -80 -187 1 -29 -2 -64 -5 -80 -9 -35 9 -57 46 -57 16 0
29 -4 29 -10 0 -14 70 -48 125 -60 73 -16 77 -15 724 237 182 70 334 142 389
182 211 155 118 473 -137 470 -36 0 -77 -4 -91 -9z m220 -285 c9 -11 7 -19
-12 -38 -31 -31 -172 -114 -317 -186 -158 -79 -534 -251 -549 -251 -16 0 -32
33 -24 48 4 6 73 41 152 77 181 83 506 246 625 313 99 56 107 59 125 37z"/>
<path d="M1275 7141 c-61 -28 -105 -70 -131 -126 -53 -113 -13 -255 93 -328
92 -63 337 -137 593 -177 102 -17 214 -39 248 -50 117 -37 212 -20 276 49 26
27 36 31 82 31 66 0 103 16 111 48 8 35 -20 61 -48 44 -25 -16 -187 4 -347 43
-230 56 -717 244 -784 303 -22 19 -22 26 -3 46 14 14 22 12 78 -18 131 -72
500 -209 687 -257 102 -25 283 -59 289 -53 12 12 -25 91 -60 129 -50 55 -165
105 -334 146 -243 59 -279 70 -430 129 -173 68 -243 77 -320 41z"/>
<path d="M10310 5839 c-24 -11 -53 -28 -63 -37 -12 -11 -36 -17 -66 -17 -44 0
-46 -1 -49 -32 -2 -23 3 -35 19 -47 19 -13 22 -24 20 -63 -2 -52 17 -119 48
-162 34 -48 93 -80 248 -135 82 -30 214 -79 294 -109 79 -31 206 -74 281 -96
76 -22 201 -65 278 -95 122 -48 151 -56 208 -56 81 0 132 22 184 76 49 52 68
100 68 176 -1 114 -55 194 -170 253 -111 55 -298 121 -470 165 -91 23 -208 54
-260 70 -52 16 -147 43 -210 60 -63 17 -136 39 -162 50 -61 26 -140 26 -198
-1z m250 -283 c36 -13 190 -59 341 -101 528 -146 569 -160 569 -195 0 -32 -23
-34 -107 -6 -43 14 -184 55 -313 90 -411 113 -568 164 -583 188 -12 18 -3 48
14 48 6 0 42 -11 79 -24z"/>
<path d="M2902 4400 c-73 -34 -84 -36 -117 -14 -13 8 -47 18 -77 21 -66 6
-101 -5 -394 -128 -120 -51 -300 -125 -399 -166 -99 -41 -198 -85 -221 -98
-45 -26 -87 -76 -110 -130 -19 -46 -18 -147 2 -193 9 -20 19 -53 23 -72 5 -30
11 -36 41 -42 19 -3 62 -16 95 -28 45 -17 73 -21 110 -16 61 7 206 63 340 132
659 336 667 341 701 430 15 40 16 96 2 178 -2 15 10 25 57 44 94 37 110 46
113 65 11 54 -70 62 -166 17z m-72 -175 c21 -25 8 -50 -26 -51 -70 -2 -543
-281 -818 -482 -70 -52 -92 -63 -105 -55 -33 21 -22 41 57 102 224 170 786
500 853 501 15 0 32 -7 39 -15z"/>
<path d="M9499 3666 c-20 -7 -49 -22 -65 -33 -20 -14 -39 -19 -57 -16 -49 9
-72 -31 -45 -80 6 -12 10 -50 9 -84 -3 -68 21 -138 62 -181 12 -13 105 -80
207 -149 272 -185 309 -214 494 -403 192 -195 229 -220 331 -220 96 0 166 40
225 128 14 21 18 21 48 10 40 -15 66 -3 70 34 2 19 -7 33 -42 61 -34 28 -46
46 -51 75 -11 70 -63 139 -223 300 -174 176 -252 234 -542 398 -85 48 -177
101 -205 119 -88 56 -145 67 -216 41z m356 -271 c116 -81 321 -221 458 -311
136 -90 247 -170 247 -178 0 -7 -7 -19 -15 -26 -12 -10 -28 -5 -87 31 -105 63
-497 326 -678 456 -85 60 -165 113 -178 117 -13 4 -28 19 -35 33 -9 21 -8 27
7 39 25 18 27 16 281 -161z"/>
<path d="M4566 2715 c-9 -14 -29 -28 -44 -31 -49 -12 -98 -42 -135 -83 -41
-46 -80 -119 -217 -411 -53 -113 -117 -245 -142 -295 -72 -144 -98 -217 -98
-278 0 -63 22 -132 51 -163 17 -18 19 -29 14 -71 -6 -38 -4 -52 9 -62 22 -19
60 -6 74 24 10 21 16 25 35 19 42 -15 132 -7 180 16 52 25 116 89 146 147 33
65 135 317 206 507 37 99 85 221 108 270 34 77 41 101 41 156 0 40 -7 77 -16
96 -18 33 -101 114 -118 114 -5 0 -10 10 -10 23 0 50 -56 65 -84 22z m64 -265
c12 -7 13 -14 4 -37 -362 -904 -390 -965 -429 -933 -8 7 -15 18 -15 24 0 7 24
68 54 137 29 68 88 210 131 314 219 535 212 522 255 495z"/>
<path d="M7056 2318 c-9 -12 -16 -26 -16 -31 0 -5 -11 -18 -25 -29 -14 -11
-37 -41 -53 -66 -26 -45 -27 -52 -26 -182 2 -142 15 -262 65 -575 49 -307 64
-358 131 -424 48 -49 102 -71 175 -71 60 0 63 -1 69 -27 13 -54 34 -83 58 -83
39 0 49 23 42 90 -7 56 -5 63 19 92 43 51 67 109 72 173 5 62 -13 159 -91 490
-20 83 -47 219 -61 304 -28 169 -42 211 -83 255 -34 36 -117 76 -158 76 -17 0
-37 7 -44 15 -18 22 -57 18 -74 -7z m152 -127 c8 -5 36 -119 68 -277 79 -390
140 -656 174 -763 26 -80 28 -97 17 -108 -7 -8 -21 -11 -30 -7 -38 14 -105
264 -196 734 -34 173 -66 323 -71 332 -14 24 -12 72 2 86 14 14 19 15 36 3z"/>
</g>
</svg>
